:FULLY-SPECIFIED
:FORCE-ALL-JOINTS-BE-3DOF
:DEGREES
1937
root 5.78494 13.6787 28.0122 1058.2 65.8284 333.935
lfemur -61.5817 10.3523 -1.42937
ltibia 66.6487 0 0
lfoot -1.33323 -1.48953 0
ltoes -31.596 0 0
rfemur -2.11169 -1.62661 17.3253
rtibia 61.3042 0 0
rfoot -25.1661 -26.598 0
rtoes -27.8526 0 0
lowerback 12.33 5.29741 4.0482
upperback -1.01838 8.01198 3.60613
thorax -7.96111 3.82855 0.0528445
lowerneck -0.125263 15.2547 7.2546
upperneck 5.99014 20.8184 -7.07957
head 3.56432 10.3665 -2.53704
lclavicle 6.88037e-15 -1.13981e-14 0
lhumerus 66.4407 -22.554 58.6417
lradius 39.5764 0 0
lwrist -2.04337 0 0
lhand -15.0044 34.178 0
lfingers 7.12502 0 0
lthumb 11.1527 63.7224 0
rclavicle 6.88037e-15 -1.13981e-14 0
rhumerus -44.3717 24.5548 -77.6952
rradius 93.5415 0 0
rwrist -36.6954 0 0
rhand -13.6764 -402.917 0
rfingers 7.12502 0 0
rthumb 12.4408 287.479 0
1938
root 5.68763 13.6815 28.019 1057.45 66.7254 333.282
lfemur -61.598 8.70553 -1.05076
ltibia 65.3694 0 0
lfoot -0.10318 -1.1142 0
ltoes -31.3176 0 0
rfemur -2.71537 0.0543602 17.6867
rtibia 62.3274 0 0
rfoot -25.1831 -25.6154 0
rtoes -27.8971 0 0
lowerback 12.4757 5.30908 4.028
upperback -0.997249 8.02826 3.5685
thorax -8.01769 3.83404 0.00758559
lowerneck -0.125012 15.2358 7.25205
upperneck 5.98833 20.7969 -7.13109
head 3.5346 10.3534 -2.52926
lclavicle -2.59845e-15 -1.30911e-14 0
lhumerus 68.4183 -24.1546 55.3178
lradius 44.8346 0 0
lwrist 1.25323 0 0
lhand -13.6912 33.9095 0
lfingers 7.12502 0 0
lthumb 12.4174 63.3557 0
rclavicle -2.59845e-15 -1.30911e-14 0
rhumerus -42.4799 26.6145 -77.2852
rradius 93.2197 0 0
rwrist -35.126 0 0
rhand -13.4286 -402.897 0
rfingers 7.12502 0 0
rthumb 12.6797 287.514 0
1939
root 5.59032 13.6844 28.0258 1056.5 67.897 332.479
lfemur -61.6209 6.56638 -0.59503
ltibia 63.7274 0 0
lfoot 1.4801 -0.632154 0
ltoes -31.0018 0 0
rfemur -3.51234 2.18516 18.1254
rtibia 63.7053 0 0
rfoot -25.1785 -24.3671 0
rtoes -27.9579 0 0
lowerback 12.6772 5.32424 3.98948
upperback -0.968267 8.0477 3.50983
thorax -8.09669 3.84026 -0.0556203
lowerneck -0.121459 15.2125 7.24921
upperneck 5.98087 20.771 -7.20231
head 3.49574 10.3373 -2.5219
lclavicle -1.38839e-14 -1.4934e-14 0
lhumerus 70.9172 -26.3537 50.892
lradius 51.5516 0 0
lwrist 5.89913 0 0
lhand -11.9577 33.5662 0
lfingers 7.12502 0 0
lthumb 14.0869 62.8879 0
rclavicle -1.38839e-14 -1.4934e-14 0
rhumerus -39.9154 29.2393 -76.6655
rradius 92.6993 0 0
rwrist -32.986 0 0
rhand -13.1595 -402.949 0
rfingers 7.12502 0 0
rthumb 12.9391 287.478 0
1940
root 5.49301 13.6872 28.0326 1055.34 69.3816 331.508
lfemur -61.6515 3.86694 -0.0545739
ltibia 61.6746 0 0
lfoot 3.46406 -0.0291635 0
ltoes -30.6474 0 0
rfemur -4.53029 4.82335 18.6493
rtibia 65.4909 0 0
rfoot -25.147 -22.8186 0
rtoes -28.0375 0 0
lowerback 12.9432 5.34334 3.92908
upperback -0.930225 8.0706 3.42641
thorax -8.20167 3.84724 -0.139617
lowerneck -0.113876 15.1843 7.24606
upperneck 5.96655 20.7401 -7.29634
head 3.44646 10.318 -2.51525
lclavicle -2.71387e-14 -1.69176e-14 0
lhumerus 74.0035 -29.2437 45.2033
lradius 59.9189 0 0
lwrist 12.1108 0 0
lhand -9.74391 33.1382 0
lfingers 7.12502 0 0
lthumb 16.2194 62.3057 0
rclavicle -2.71387e-14 -1.69176e-14 0
rhumerus -36.5766 32.5029 -75.8
rradius 91.9445 0 0
rwrist -30.1882 0 0
rhand -12.8707 -403.09 0
rfingers 7.12502 0 0
rthumb 13.2175 287.354 0
1941
root 5.3957 13.6901 28.0394 1053.93 71.2174 330.352
lfemur -61.6909 0.53935 0.578204
ltibia 59.1626 0 0
lfoot 5.89615 0.709014 0
ltoes -30.253 0 0
rfemur -5.79693 8.02648 19.2666
rtibia 67.7371 0 0
rfoot -25.0834 -20.9358 0
rtoes -28.1384 0 0
lowerback 13.2826 5.36688 3.84323
upperback -0.881913 8.09725 3.31452
thorax -8.33618 3.85499 -0.247247
lowerneck -0.101537 15.1506 7.24262
upperneck 5.94417 20.7037 -7.41623
head 3.38549 10.2952 -2.5096
lclavicle -4.25255e-14 -1.90327e-14 0
lhumerus 77.7432 -32.9173 38.0908
lradius 70.1279 0 0
lwrist 20.1046 0 0
lhand -6.98946 32.6157 0
lfingers 7.12502 0 0
lthumb 18.8728 61.5959 0
rclavicle -4.25255e-14 -1.90327e-14 0
rhumerus -32.3617 36.4787 -74.6526
rradius 90.9194 0 0
rwrist -26.6456 0 0
rhand -12.5637 -403.336 0
rfingers 7.12502 0 0
rthumb 13.5135 287.126 0
1942
root 5.29839 13.6929 28.0462 1052.25 73.4429 328.994
lfemur -61.7401 -3.48424 1.3109
ltibia 56.1432 0 0
lfoot 8.82383 1.59662 0
ltoes -29.8173 0 0
rfemur -7.33997 11.8521 19.9853
rtibia 70.4969 0 0
rfoot -24.9825 -18.6844 0
rtoes -28.263 0 0
lowerback 13.704 5.39532 3.72839
upperback -0.822122 8.12795 3.17044
thorax -8.50376 3.86354 -0.381356
lowerneck -0.0837178 15.1109 7.23887
upperneck 5.91251 20.6615 -7.56508
head 3.31155 10.2685 -2.50523
lclavicle -6.02069e-14 -2.127e-14 0
lhumerus 82.2022 -37.4668 29.3937
lradius 82.3701 0 0
lwrist 30.0971 0 0
lhand -3.63418 31.9888 0
lfingers 7.12502 0 0
lthumb 22.1052 60.7453 0
rclavicle -6.02069e-14 -2.127e-14 0
rhumerus -27.169 41.2404 -73.187
rradius 89.5879 0 0
rwrist -22.2709 0 0
rhand -12.2401 -403.704 0
rfingers 7.12502 0 0
rthumb 13.8256 286.776 0
1943
root 5.13528 13.7248 28.0957 1049.39 73.9049 326.096
lfemur -61.6446 -4.08583 1.25564
ltibia 54.8354 0 0
lfoot 8.94657 1.40924 0
ltoes -29.4178 0 0
rfemur -7.64396 12.3134 20.2935
rtibia 70.6461 0 0
rfoot -25.0079 -18.6193 0
rtoes -28.6169 0 0
lowerback 13.763 5.32865 3.75083
upperback -0.816039 8.04724 3.16587
thorax -8.53 3.8228 -0.387287
lowerneck -0.115045 15.088 7.24023
upperneck 5.8725 20.6277 -7.60047
head 3.29529 10.2501 -2.50947
lclavicle -5.9175e-14 -2.10941e-14 0
lhumerus 83.2545 -37.9292 28.0565
lradius 84.7593 0 0
lwrist 30.9445 0 0
lhand -3.69176 32.0777 0
lfingers 7.12502 0 0
lthumb 22.0497 60.8374 0
rclavicle -5.9175e-14 -2.10941e-14 0
rhumerus -26.4138 42.0354 -72.947
rradius 89.7034 0 0
rwrist -22.357 0 0
rhand -11.9315 -403.611 0
rfingers 7.12502 0 0
rthumb 14.1226 286.894 0
